<svg xmlns="http://www.w3.org/2000/svg" xmlns:xlink="http://www.w3.org/1999/xlink" contentStyleType="text/css" data-diagram-type="DESCRIPTION" height="340px" preserveAspectRatio="none" style="width:1150px;height:340px;background:#FFFFFF;" version="1.1" viewBox="0 0 1150 340" width="1150px" zoomAndPan="magnify"><defs/><g><!--cluster Domain--><g class="cluster" data-entity="Domain" data-source-line="3" data-uid="ent0002" id="cluster_Domain"><path d="M641.5,246 L702.54,246 A3.75,3.75 0 0 1 705.04,248.5 L712.04,268.2969 L1002.5,268.2969 A2.5,2.5 0 0 1 1005,270.7969 L1005,330.5 A2.5,2.5 0 0 1 1002.5,333 L641.5,333 A2.5,2.5 0 0 1 639,330.5 L639,248.5 A2.5,2.5 0 0 1 641.5,246" fill="none" style="stroke:#000000;stroke-width:1.5;"/><line style="stroke:#000000;stroke-width:1.5;" x1="639" x2="712.04" y1="268.2969" y2="268.2969"/><text fill="#000000" font-family="sans-serif" font-size="14" font-weight="bold" lengthAdjust="spacing" textLength="60.04" x="643" y="260.9951">Domain</text></g><!--cluster UseCases--><g class="cluster" data-entity="UseCases" data-source-line="9" data-uid="ent0006" id="cluster_UseCases"><path d="M489.5,126 L565.5791,126 A3.75,3.75 0 0 1 568.0791,128.5 L575.0791,148.2969 L1140.5,148.2969 A2.5,2.5 0 0 1 1143,150.7969 L1143,210.5 A2.5,2.5 0 0 1 1140.5,213 L489.5,213 A2.5,2.5 0 0 1 487,210.5 L487,128.5 A2.5,2.5 0 0 1 489.5,126" fill="none" style="stroke:#000000;stroke-width:1.5;"/><line style="stroke:#000000;stroke-width:1.5;" x1="487" x2="575.0791" y1="148.2969" y2="148.2969"/><text fill="#000000" font-family="sans-serif" font-size="14" font-weight="bold" lengthAdjust="spacing" textLength="75.0791" x="491" y="140.9951">UseCases</text></g><!--cluster Infrastructure / Adapters--><g class="cluster" data-entity="Infrastructure / Adapters" data-source-line="15" data-uid="ent0010" id="cluster_Infrastructure / Adapters"><path d="M8.5,126 L206.9834,126 A3.75,3.75 0 0 1 209.4834,128.5 L216.4834,148.2969 L427.5,148.2969 A2.5,2.5 0 0 1 430,150.7969 L430,210.5 A2.5,2.5 0 0 1 427.5,213 L8.5,213 A2.5,2.5 0 0 1 6,210.5 L6,128.5 A2.5,2.5 0 0 1 8.5,126" fill="none" style="stroke:#000000;stroke-width:1.5;"/><line style="stroke:#000000;stroke-width:1.5;" x1="6" x2="216.4834" y1="148.2969" y2="148.2969"/><text fill="#000000" font-family="sans-serif" font-size="14" font-weight="bold" lengthAdjust="spacing" textLength="197.4834" x="10" y="140.9951">Infrastructure / Adapters</text></g><!--cluster Application / CLI--><g class="cluster" data-entity="Application / CLI" data-source-line="21" data-uid="ent0014" id="cluster_Application / CLI"><path d="M653.5,6 L783.0635,6 A3.75,3.75 0 0 1 785.5635,8.5 L792.5635,28.2969 L792.5,28.2969 A2.5,2.5 0 0 1 795,30.7969 L795,90.5 A2.5,2.5 0 0 1 792.5,93 L653.5,93 A2.5,2.5 0 0 1 651,90.5 L651,8.5 A2.5,2.5 0 0 1 653.5,6" fill="none" style="stroke:#000000;stroke-width:1.5;"/><line style="stroke:#000000;stroke-width:1.5;" x1="651" x2="792.5635" y1="28.2969" y2="28.2969"/><text fill="#000000" font-family="sans-serif" font-size="14" font-weight="bold" lengthAdjust="spacing" textLength="128.5635" x="655" y="20.9951">Application / CLI</text></g><!--entity Match--><g class="entity" data-entity="Match" data-source-line="4" data-uid="ent0003" id="entity_Match"><rect fill="#F1F1F1" height="36.2969" rx="2.5" ry="2.5" style="stroke:#181818;stroke-width:0.5;" width="62.7178" x="655.5" y="281"/><text fill="#000000" font-family="sans-serif" font-size="14" lengthAdjust="spacing" textLength="42.7178" x="665.5" y="303.9951">Match</text></g><!--entity PlayerEvent--><g class="entity" data-entity="PlayerEvent" data-source-line="5" data-uid="ent0004" id="entity_PlayerEvent"><rect fill="#F1F1F1" height="36.2969" rx="2.5" ry="2.5" style="stroke:#181818;stroke-width:0.5;" width="103.6719" x="754" y="281"/><text fill="#000000" font-family="sans-serif" font-size="14" lengthAdjust="spacing" textLength="83.6719" x="764" y="303.9951">PlayerEvent</text></g><!--entity TeamStats--><g class="entity" data-entity="TeamStats" data-source-line="6" data-uid="ent0005" id="entity_TeamStats"><rect fill="#F1F1F1" height="36.2969" rx="2.5" ry="2.5" style="stroke:#181818;stroke-width:0.5;" width="95.1201" x="893.5" y="281"/><text fill="#000000" font-family="sans-serif" font-size="14" lengthAdjust="spacing" textLength="75.1201" x="903.5" y="303.9951">TeamStats</text></g><!--entity MostWinsInYearUseCase--><g class="entity" data-entity="MostWinsInYearUseCase" data-source-line="10" data-uid="ent0007" id="entity_MostWinsInYearUseCase"><rect fill="#F1F1F1" height="36.2969" rx="2.5" ry="2.5" style="stroke:#181818;stroke-width:0.5;" width="192.2451" x="503" y="161"/><text fill="#000000" font-family="sans-serif" font-size="14" lengthAdjust="spacing" textLength="172.2451" x="513" y="183.9951">MostWinsInYearUseCase</text></g><!--entity TopScorerUseCase--><g class="entity" data-entity="TopScorerUseCase" data-source-line="11" data-uid="ent0008" id="entity_TopScorerUseCase"><rect fill="#F1F1F1" height="36.2969" rx="2.5" ry="2.5" style="stroke:#181818;stroke-width:0.5;" width="151.6943" x="730" y="161"/><text fill="#000000" font-family="sans-serif" font-size="14" lengthAdjust="spacing" textLength="131.6943" x="740" y="183.9951">TopScorerUseCase</text></g><!--entity LeastPlaysByStateUseCase--><g class="entity" data-entity="LeastPlaysByStateUseCase" data-source-line="12" data-uid="ent0009" id="entity_LeastPlaysByStateUseCase"><rect fill="#F1F1F1" height="36.2969" rx="2.5" ry="2.5" style="stroke:#181818;stroke-width:0.5;" width="209.6289" x="917" y="161"/><text fill="#000000" font-family="sans-serif" font-size="14" lengthAdjust="spacing" textLength="189.6289" x="927" y="183.9951">LeastPlaysByStateUseCase</text></g><!--entity CSVReader--><g class="entity" data-entity="CSVReader" data-source-line="16" data-uid="ent0011" id="entity_CSVReader"><rect fill="#F1F1F1" height="36.2969" rx="2.5" ry="2.5" style="stroke:#181818;stroke-width:0.5;" width="98.415" x="316" y="161"/><text fill="#000000" font-family="sans-serif" font-size="14" lengthAdjust="spacing" textLength="78.415" x="326" y="183.9951">CSVReader</text></g><!--entity CsvParsers--><g class="entity" data-entity="CsvParsers" data-source-line="17" data-uid="ent0012" id="entity_CsvParsers"><rect fill="#F1F1F1" height="36.2969" rx="2.5" ry="2.5" style="stroke:#181818;stroke-width:0.5;" width="97.0889" x="21.5" y="161"/><text fill="#000000" font-family="sans-serif" font-size="14" lengthAdjust="spacing" textLength="77.0889" x="31.5" y="183.9951">CsvParsers</text></g><!--entity ReportExporter--><g class="entity" data-entity="ReportExporter" data-source-line="18" data-uid="ent0013" id="entity_ReportExporter"><rect fill="#F1F1F1" height="36.2969" rx="2.5" ry="2.5" style="stroke:#181818;stroke-width:0.5;" width="127.2354" x="153.5" y="161"/><text fill="#000000" font-family="sans-serif" font-size="14" lengthAdjust="spacing" textLength="107.2354" x="163.5" y="183.9951">ReportExporter</text></g><!--entity CLI--><g class="entity" data-entity="CLI" data-source-line="22" data-uid="ent0015" id="entity_CLI"><rect fill="#F1F1F1" height="36.2969" rx="2.5" ry="2.5" style="stroke:#181818;stroke-width:0.5;" width="41.7041" x="702" y="41"/><text fill="#000000" font-family="sans-serif" font-size="14" lengthAdjust="spacing" textLength="21.7041" x="712" y="63.9951">CLI</text></g><!--link CSVReader to MostWinsInYearUseCase--><g class="link" data-entity-1="CSVReader" data-entity-2="MostWinsInYearUseCase" data-source-line="25" data-uid="lnk16" id="link_CSVReader_MostWinsInYearUseCase"><path d="M414.05,179 C439.79,179 466.23,179 496.73,179" fill="none" id="CSVReader-to-MostWinsInYearUseCase" style="stroke:#181818;stroke-width:1;"/><polygon fill="#181818" points="502.73,179,493.73,175,497.73,179,493.73,183,502.73,179" style="stroke:#181818;stroke-width:1;"/><text fill="#000000" font-family="sans-serif" font-size="13" lengthAdjust="spacing" textLength="52.6157" x="432.5" y="172.0669">streams</text></g><!--link CSVReader to TopScorerUseCase--><g class="link" data-entity-1="CSVReader" data-entity-2="TopScorerUseCase" data-source-line="26" data-uid="lnk17" id="link_CSVReader_TopScorerUseCase"><path d="M400.98,160.87 C425.25,148.68 458.01,132.29 487,118 C494.76,114.18 496.07,111.44 504.5,109.5 C545.86,99.99 654.14,99.99 695.5,109.5 C731.06,117.68 761.0381,139.1627 781.7681,156.8727" fill="none" id="CSVReader-to-TopScorerUseCase" style="stroke:#181818;stroke-width:1;"/><polygon fill="#181818" points="786.33,160.77,782.0854,151.8828,782.5284,157.5222,776.8889,157.9653,786.33,160.77" style="stroke:#181818;stroke-width:1;"/></g><!--link CsvParsers to MostWinsInYearUseCase--><g class="link" data-entity-1="CsvParsers" data-entity-2="MostWinsInYearUseCase" data-source-line="27" data-uid="lnk18" id="link_CsvParsers_MostWinsInYearUseCase"><path d="M83.19,160.88 C97.88,142.68 123.54,116.39 153.5,109.5 C181.55,103.05 384.18,104.39 412.5,109.5 C466.74,119.28 520.3508,141.3173 557.1608,158.4573" fill="none" id="CsvParsers-to-MostWinsInYearUseCase" style="stroke:#181818;stroke-width:1;"/><polygon fill="#181818" points="562.6,160.99,556.1296,153.5648,558.0673,158.8794,552.7527,160.8171,562.6,160.99" style="stroke:#181818;stroke-width:1;"/></g><!--link CsvParsers to TopScorerUseCase--><g class="link" data-entity-1="CsvParsers" data-entity-2="TopScorerUseCase" data-source-line="28" data-uid="lnk19" id="link_CsvParsers_TopScorerUseCase"><path d="M83.19,160.88 C97.88,142.68 123.54,116.39 153.5,109.5 C182.84,102.75 666.16,102.75 695.5,109.5 C731.06,117.68 761.0381,139.1627 781.7681,156.8727" fill="none" id="CsvParsers-to-TopScorerUseCase" style="stroke:#181818;stroke-width:1;"/><polygon fill="#181818" points="786.33,160.77,782.0854,151.8828,782.5284,157.5222,776.8889,157.9653,786.33,160.77" style="stroke:#181818;stroke-width:1;"/></g><!--link MostWinsInYearUseCase to Match--><g class="link" data-entity-1="MostWinsInYearUseCase" data-entity-2="Match" data-source-line="29" data-uid="lnk20" id="link_MostWinsInYearUseCase_Match"><path d="M611.8,197.16 C628.48,219.53 653.9131,253.6302 670.6031,276.0102" fill="none" id="MostWinsInYearUseCase-to-Match" style="stroke:#181818;stroke-width:1;"/><polygon fill="#181818" points="674.19,280.82,672.0161,271.214,671.2009,276.8118,665.6031,275.9966,674.19,280.82" style="stroke:#181818;stroke-width:1;"/></g><!--link TopScorerUseCase to PlayerEvent--><g class="link" data-entity-1="TopScorerUseCase" data-entity-2="PlayerEvent" data-source-line="30" data-uid="lnk21" id="link_TopScorerUseCase_PlayerEvent"><path d="M806,197.16 C806,219.53 806,252.44 806,274.82" fill="none" id="TopScorerUseCase-to-PlayerEvent" style="stroke:#181818;stroke-width:1;"/><polygon fill="#181818" points="806,280.82,810,271.82,806,275.82,802,271.82,806,280.82" style="stroke:#181818;stroke-width:1;"/></g><!--link LeastPlaysByStateUseCase to TeamStats--><g class="link" data-entity-1="LeastPlaysByStateUseCase" data-entity-2="TeamStats" data-source-line="31" data-uid="lnk22" id="link_LeastPlaysByStateUseCase_TeamStats"><path d="M1010.22,197.16 C994.86,219.53 971.5567,253.4941 956.1867,275.8741" fill="none" id="LeastPlaysByStateUseCase-to-TeamStats" style="stroke:#181818;stroke-width:1;"/><polygon fill="#181818" points="952.79,280.82,961.1824,275.6656,955.6206,276.6984,954.5878,271.1366,952.79,280.82" style="stroke:#181818;stroke-width:1;"/></g><!--link MostWinsInYearUseCase to ReportExporter--><g class="link" data-entity-1="MostWinsInYearUseCase" data-entity-2="ReportExporter" data-source-line="32" data-uid="lnk23" id="link_MostWinsInYearUseCase_ReportExporter"><path d="M566.45,160.88 C513.96,133.93 407.32,88.61 316.5,109.5 C283.23,117.15 256.5058,138.751 238.2258,156.661" fill="none" id="MostWinsInYearUseCase-to-ReportExporter" style="stroke:#181818;stroke-width:1;"/><polygon fill="#181818" points="233.94,160.86,243.1681,157.4186,237.5115,157.3608,237.5693,151.7042,233.94,160.86" style="stroke:#181818;stroke-width:1;"/></g><!--link TopScorerUseCase to ReportExporter--><g class="link" data-entity-1="TopScorerUseCase" data-entity-2="ReportExporter" data-source-line="33" data-uid="lnk24" id="link_TopScorerUseCase_ReportExporter"><path d="M786.33,160.77 C765.6,143.06 731.06,117.68 695.5,109.5 C654.46,100.06 357.54,100.06 316.5,109.5 C283.23,117.15 256.5058,138.751 238.2258,156.661" fill="none" id="TopScorerUseCase-to-ReportExporter" style="stroke:#181818;stroke-width:1;"/><polygon fill="#181818" points="233.94,160.86,243.1681,157.4186,237.5115,157.3608,237.5693,151.7042,233.94,160.86" style="stroke:#181818;stroke-width:1;"/></g><!--link CLI to MostWinsInYearUseCase--><g class="link" data-entity-1="CLI" data-entity-2="MostWinsInYearUseCase" data-source-line="34" data-uid="lnk25" id="link_CLI_MostWinsInYearUseCase"><path d="M704.97,77.16 C681.46,99.53 644.9167,134.304 621.3967,156.684" fill="none" id="CLI-to-MostWinsInYearUseCase" style="stroke:#181818;stroke-width:1;"/><polygon fill="#181818" points="617.05,160.82,626.3273,157.5138,620.6722,157.3733,620.8127,151.7182,617.05,160.82" style="stroke:#181818;stroke-width:1;"/></g><!--link CLI to TopScorerUseCase--><g class="link" data-entity-1="CLI" data-entity-2="TopScorerUseCase" data-source-line="35" data-uid="lnk26" id="link_CLI_TopScorerUseCase"><path d="M735.07,77.16 C750.81,99.53 774.7169,133.5333 790.4669,155.9133" fill="none" id="CLI-to-TopScorerUseCase" style="stroke:#181818;stroke-width:1;"/><polygon fill="#181818" points="793.92,160.82,792.0115,151.1578,791.0424,156.7311,785.4692,155.762,793.92,160.82" style="stroke:#181818;stroke-width:1;"/></g><!--SRC=[XP9FQuD04CNl-oc6tANt7WgfpK6m46B_K4eEmpfD9Bgxp4xIIkbtxsghCLRfHLpdlT-RcTKV2kEGiG9jAsSD6ScaBWcOjA3PbQIKGtt07S7YpbPOc0LyAe3NUnIztpPlwn9hujKfUDlp0s6L2OhVgg-1-z5JZ9vyvxTUdWlZ4_D2oB_57xzrcRPC5nzJGYzDah-j6pZrnM56OjuuwFYevSW4Lx3CqGbn5nfdJnl2dBXbnlwqHlQXt1utv2pBwgDvDeeXUEbSMMYKmff0ZTEa0wP9A-p1476nsqjq0vC3mZM4ziA2_9HbFBawTmXHRj_D77PA-0SstL3FRUvJZKrzUN39Qkukpj7T7p2NsGrykVA9z1bXMFj_2naenjXl]--></g></svg>