<svg xmlns="http://www.w3.org/2000/svg" xmlns:xlink="http://www.w3.org/1999/xlink" contentStyleType="text/css" data-diagram-type="ACTIVITY" height="568px" preserveAspectRatio="none" style="width:454px;height:568px;background:#FFFFFF;" version="1.1" viewBox="0 0 454 568" width="454px" zoomAndPan="magnify"><defs/><g><ellipse cx="227.3936" cy="20" fill="#222222" rx="10" ry="10" style="stroke:#222222;stroke-width:1;"/><rect fill="#F1F1F1" height="33.9688" rx="12.5" ry="12.5" style="stroke:#181818;stroke-width:0.5;" width="103.0684" x="175.8594" y="50"/><text fill="#000000" font-family="sans-serif" font-size="12" lengthAdjust="spacing" textLength="83.0684" x="185.8594" y="71.1387">Path: gols.csv</text><rect fill="#F1F1F1" height="33.9688" rx="12.5" ry="12.5" style="stroke:#181818;stroke-width:0.5;" width="136.6016" x="159.0928" y="103.9688"/><text fill="#000000" font-family="sans-serif" font-size="12" lengthAdjust="spacing" textLength="116.6016" x="169.0928" y="125.1074">Files.lines(gols.csv)</text><rect fill="#F1F1F1" height="33.9688" rx="12.5" ry="12.5" style="stroke:#181818;stroke-width:0.5;" width="61.1504" x="196.8184" y="157.9375"/><text fill="#000000" font-family="sans-serif" font-size="12" lengthAdjust="spacing" textLength="41.1504" x="206.8184" y="179.0762">skip(1)</text><rect fill="#F1F1F1" height="33.9688" rx="12.5" ry="12.5" style="stroke:#181818;stroke-width:0.5;" width="275.457" x="89.665" y="211.9063"/><text fill="#000000" font-family="sans-serif" font-size="12" lengthAdjust="spacing" textLength="255.457" x="99.665" y="233.0449">map(parseGolLine) // Optional&lt;GolEvent&gt;</text><rect fill="#F1F1F1" height="33.9688" rx="12.5" ry="12.5" style="stroke:#181818;stroke-width:0.5;" width="175.4434" x="139.6719" y="265.875"/><text fill="#000000" font-family="sans-serif" font-size="12" lengthAdjust="spacing" textLength="155.4434" x="149.6719" y="287.0137">flatMap(Optional::stream)</text><rect fill="#F1F1F1" height="33.9688" rx="12.5" ry="12.5" style="stroke:#181818;stroke-width:0.5;" width="140.5918" x="157.0977" y="319.8438"/><text fill="#000000" font-family="sans-serif" font-size="12" lengthAdjust="spacing" textLength="120.5918" x="167.0977" y="340.9824">filter(yearPredicate)</text><rect fill="#F1F1F1" height="33.9688" rx="12.5" ry="12.5" style="stroke:#181818;stroke-width:0.5;" width="191.5859" x="131.6006" y="373.8125"/><text fill="#000000" font-family="sans-serif" font-size="12" lengthAdjust="spacing" textLength="171.5859" x="141.6006" y="394.9512">map(GolEvent::playerName)</text><rect fill="#F1F1F1" height="33.9688" rx="12.5" ry="12.5" style="stroke:#181818;stroke-width:0.5;" width="432.7871" x="11" y="427.7813"/><text fill="#000000" font-family="sans-serif" font-size="12" lengthAdjust="spacing" textLength="412.7871" x="21" y="448.9199">collect(groupingBy(player, summingInt(1))) -&gt; Map&lt;Player,Integer&gt;</text><rect fill="#F1F1F1" height="33.9688" rx="12.5" ry="12.5" style="stroke:#181818;stroke-width:0.5;" width="355.4551" x="49.666" y="481.75"/><text fill="#000000" font-family="sans-serif" font-size="12" lengthAdjust="spacing" textLength="335.4551" x="59.666" y="502.8887">maxByValue -&gt; TopScorerResult { playerName, goals }</text><ellipse cx="227.3936" cy="546.7188" fill="none" rx="11" ry="11" style="stroke:#222222;stroke-width:1;"/><ellipse cx="227.3936" cy="546.7188" fill="#222222" rx="6" ry="6" style="stroke:#222222;stroke-width:1;"/><line style="stroke:#181818;stroke-width:1;" x1="227.3936" x2="227.3936" y1="30" y2="50"/><polygon fill="#181818" points="223.3936,40,227.3936,50,231.3936,40,227.3936,44" style="stroke:#181818;stroke-width:1;"/><line style="stroke:#181818;stroke-width:1;" x1="227.3936" x2="227.3936" y1="83.9688" y2="103.9688"/><polygon fill="#181818" points="223.3936,93.9688,227.3936,103.9688,231.3936,93.9688,227.3936,97.9688" style="stroke:#181818;stroke-width:1;"/><line style="stroke:#181818;stroke-width:1;" x1="227.3936" x2="227.3936" y1="137.9375" y2="157.9375"/><polygon fill="#181818" points="223.3936,147.9375,227.3936,157.9375,231.3936,147.9375,227.3936,151.9375" style="stroke:#181818;stroke-width:1;"/><line style="stroke:#181818;stroke-width:1;" x1="227.3936" x2="227.3936" y1="191.9063" y2="211.9063"/><polygon fill="#181818" points="223.3936,201.9063,227.3936,211.9063,231.3936,201.9063,227.3936,205.9063" style="stroke:#181818;stroke-width:1;"/><line style="stroke:#181818;stroke-width:1;" x1="227.3936" x2="227.3936" y1="245.875" y2="265.875"/><polygon fill="#181818" points="223.3936,255.875,227.3936,265.875,231.3936,255.875,227.3936,259.875" style="stroke:#181818;stroke-width:1;"/><line style="stroke:#181818;stroke-width:1;" x1="227.3936" x2="227.3936" y1="299.8438" y2="319.8438"/><polygon fill="#181818" points="223.3936,309.8438,227.3936,319.8438,231.3936,309.8438,227.3936,313.8438" style="stroke:#181818;stroke-width:1;"/><line style="stroke:#181818;stroke-width:1;" x1="227.3936" x2="227.3936" y1="353.8125" y2="373.8125"/><polygon fill="#181818" points="223.3936,363.8125,227.3936,373.8125,231.3936,363.8125,227.3936,367.8125" style="stroke:#181818;stroke-width:1;"/><line style="stroke:#181818;stroke-width:1;" x1="227.3936" x2="227.3936" y1="407.7813" y2="427.7813"/><polygon fill="#181818" points="223.3936,417.7813,227.3936,427.7813,231.3936,417.7813,227.3936,421.7813" style="stroke:#181818;stroke-width:1;"/><line style="stroke:#181818;stroke-width:1;" x1="227.3936" x2="227.3936" y1="461.75" y2="481.75"/><polygon fill="#181818" points="223.3936,471.75,227.3936,481.75,231.3936,471.75,227.3936,475.75" style="stroke:#181818;stroke-width:1;"/><line style="stroke:#181818;stroke-width:1;" x1="227.3936" x2="227.3936" y1="515.7188" y2="535.7188"/><polygon fill="#181818" points="223.3936,525.7188,227.3936,535.7188,231.3936,525.7188,227.3936,529.7188" style="stroke:#181818;stroke-width:1;"/><!--SRC=[HP1DImD138Rl-olcE0krnUkqxA6WKgYwg7WFOxeEPZv8iiL5_E_EjYpUmlC-l0aH1TR6zQ2VpWoPPEtbl6tSVI2KDOM4OXVSLYvVeTZRUOfGR04MVCXqh5vhDXlpN3Ja1BIhyEwCIRjgdWZqiTfBw9me8yIvvHH8aUs4m3tZH_2WkBGl7SuLWWdv2U8byva8lTg1yrX26lQJlGeh8sECbHoIrYFRrjnqfcxUzTUuOXoGkql_ztvw1nfnTjvoUVMPaLzGHbBpO_uthkfRWCJyRXlHNFu0]--></g></svg>