<svg xmlns="http://www.w3.org/2000/svg" xmlns:xlink="http://www.w3.org/1999/xlink" contentStyleType="text/css" data-diagram-type="ACTIVITY" height="308px" preserveAspectRatio="none" style="width:296px;height:308px;background:#FFFFFF;" version="1.1" viewBox="0 0 296 308" width="296px" zoomAndPan="magnify"><defs/><g><ellipse cx="143.6211" cy="20" fill="#222222" rx="10" ry="10" style="stroke:#222222;stroke-width:1;"/><rect fill="#F1F1F1" height="33.9688" rx="12.5" ry="12.5" style="stroke:#181818;stroke-width:0.5;" width="177.2012" x="55.0205" y="50"/><text fill="#000000" font-family="sans-serif" font-size="12" lengthAdjust="spacing" textLength="157.2012" x="65.0205" y="71.1387">Recebe uma linha (String)</text><polygon fill="#F1F1F1" points="105.5696,103.9688,181.6726,103.9688,193.6726,115.9688,181.6726,127.9688,105.5696,127.9688,93.5696,115.9688,105.5696,103.9688" style="stroke:#181818;stroke-width:0.5;"/><text fill="#000000" font-family="sans-serif" font-size="11" lengthAdjust="spacing" textLength="76.103" x="105.5696" y="119.7769">parseLine ok?</text><text fill="#000000" font-family="sans-serif" font-size="11" lengthAdjust="spacing" textLength="19.0083" x="74.5613" y="113.3745">yes</text><text fill="#000000" font-family="sans-serif" font-size="11" lengthAdjust="spacing" textLength="13.7017" x="193.6726" y="113.3745">no</text><rect fill="#F1F1F1" height="33.9688" rx="12.5" ry="12.5" style="stroke:#181818;stroke-width:0.5;" width="117.7461" x="11" y="137.9688"/><text fill="#000000" font-family="sans-serif" font-size="12" lengthAdjust="spacing" textLength="97.7461" x="21" y="159.1074">Some(GolEvent)</text><rect fill="#F1F1F1" height="33.9688" rx="12.5" ry="12.5" style="stroke:#181818;stroke-width:0.5;" width="66.377" x="36.6846" y="191.9375"/><text fill="#000000" font-family="sans-serif" font-size="12" lengthAdjust="spacing" textLength="46.377" x="46.6846" y="213.0762">process</text><rect fill="#F1F1F1" height="33.9688" rx="12.5" ry="12.5" style="stroke:#181818;stroke-width:0.5;" width="51.3066" x="191.7158" y="137.9688"/><text fill="#000000" font-family="sans-serif" font-size="12" lengthAdjust="spacing" textLength="31.3066" x="201.7158" y="159.1074">None</text><rect fill="#F1F1F1" height="33.9688" rx="12.5" ry="12.5" style="stroke:#181818;stroke-width:0.5;" width="137.2461" x="148.7461" y="191.9375"/><text fill="#000000" font-family="sans-serif" font-size="12" lengthAdjust="spacing" textLength="117.2461" x="158.7461" y="213.0762">logAndCountInvalid</text><polygon fill="#F1F1F1" points="143.6211,231.9063,155.6211,243.9063,143.6211,255.9063,131.6211,243.9063,143.6211,231.9063" style="stroke:#181818;stroke-width:0.5;"/><ellipse cx="143.6211" cy="286.9063" fill="none" rx="11" ry="11" style="stroke:#222222;stroke-width:1;"/><ellipse cx="143.6211" cy="286.9063" fill="#222222" rx="6" ry="6" style="stroke:#222222;stroke-width:1;"/><line style="stroke:#181818;stroke-width:1;" x1="143.6211" x2="143.6211" y1="30" y2="50"/><polygon fill="#181818" points="139.6211,40,143.6211,50,147.6211,40,143.6211,44" style="stroke:#181818;stroke-width:1;"/><line style="stroke:#181818;stroke-width:1;" x1="69.873" x2="69.873" y1="171.9375" y2="191.9375"/><polygon fill="#181818" points="65.873,181.9375,69.873,191.9375,73.873,181.9375,69.873,185.9375" style="stroke:#181818;stroke-width:1;"/><line style="stroke:#181818;stroke-width:1;" x1="217.3691" x2="217.3691" y1="171.9375" y2="191.9375"/><polygon fill="#181818" points="213.3691,181.9375,217.3691,191.9375,221.3691,181.9375,217.3691,185.9375" style="stroke:#181818;stroke-width:1;"/><line style="stroke:#181818;stroke-width:1;" x1="93.5696" x2="69.873" y1="115.9688" y2="115.9688"/><line style="stroke:#181818;stroke-width:1;" x1="69.873" x2="69.873" y1="115.9688" y2="137.9688"/><polygon fill="#181818" points="65.873,127.9688,69.873,137.9688,73.873,127.9688,69.873,131.9688" style="stroke:#181818;stroke-width:1;"/><line style="stroke:#181818;stroke-width:1;" x1="193.6726" x2="217.3691" y1="115.9688" y2="115.9688"/><line style="stroke:#181818;stroke-width:1;" x1="217.3691" x2="217.3691" y1="115.9688" y2="137.9688"/><polygon fill="#181818" points="213.3691,127.9688,217.3691,137.9688,221.3691,127.9688,217.3691,131.9688" style="stroke:#181818;stroke-width:1;"/><line style="stroke:#181818;stroke-width:1;" x1="69.873" x2="69.873" y1="225.9063" y2="243.9063"/><line style="stroke:#181818;stroke-width:1;" x1="69.873" x2="131.6211" y1="243.9063" y2="243.9063"/><polygon fill="#181818" points="121.6211,239.9063,131.6211,243.9063,121.6211,247.9063,125.6211,243.9063" style="stroke:#181818;stroke-width:1;"/><line style="stroke:#181818;stroke-width:1;" x1="217.3691" x2="217.3691" y1="225.9063" y2="243.9063"/><line style="stroke:#181818;stroke-width:1;" x1="217.3691" x2="155.6211" y1="243.9063" y2="243.9063"/><polygon fill="#181818" points="165.6211,239.9063,155.6211,243.9063,165.6211,247.9063,161.6211,243.9063" style="stroke:#181818;stroke-width:1;"/><line style="stroke:#181818;stroke-width:1;" x1="143.6211" x2="143.6211" y1="83.9688" y2="103.9688"/><polygon fill="#181818" points="139.6211,93.9688,143.6211,103.9688,147.6211,93.9688,143.6211,97.9688" style="stroke:#181818;stroke-width:1;"/><line style="stroke:#181818;stroke-width:1;" x1="143.6211" x2="143.6211" y1="255.9063" y2="275.9063"/><polygon fill="#181818" points="139.6211,265.9063,143.6211,275.9063,147.6211,265.9063,143.6211,269.9063" style="stroke:#181818;stroke-width:1;"/><!--SRC=[3Sf13e8m40NGVKynotA5iZ3466DYNCW9Alr0OvaXdO74szlrUsgncWjlJFY0ZYrIoRn6ygFLp4lNkpoJtsDLF3E3v7lfo5Om-H-qSs6K3VukvNQ2hVMmLvcWsZiK1NcMbbx2Q5Ha6JXTvM1xy1bBJcrnohDJa_qF]--></g></svg>