<svg xmlns="http://www.w3.org/2000/svg" xmlns:xlink="http://www.w3.org/1999/xlink" contentStyleType="text/css" data-diagram-type="DESCRIPTION" height="608px" preserveAspectRatio="none" style="width:639px;height:608px;background:#FFFFFF;" version="1.1" viewBox="0 0 639 608" width="639px" zoomAndPan="magnify"><defs/><g><!--entity f1--><g class="entity" data-entity="f1" data-source-line="4" data-uid="ent0002" id="entity_f1"><rect fill="#F1F1F1" height="36.2969" rx="2.5" ry="2.5" style="stroke:#181818;stroke-width:0.5;" width="292.8975" x="71.5" y="46"/><text fill="#000000" font-family="sans-serif" font-size="14" lengthAdjust="spacing" textLength="272.8975" x="81.5" y="68.9951">readMatches: Path -&gt; Stream&lt;String&gt;</text></g><!--entity f2--><g class="entity" data-entity="f2" data-source-line="5" data-uid="ent0003" id="entity_f2"><rect fill="#F1F1F1" height="36.2969" rx="2.5" ry="2.5" style="stroke:#181818;stroke-width:0.5;" width="303.8486" x="66" y="182"/><text fill="#000000" font-family="sans-serif" font-size="14" lengthAdjust="spacing" textLength="283.8486" x="76" y="204.9951">parseMatch: String -&gt; Optional&lt;Match&gt;</text></g><!--entity f3--><g class="entity" data-entity="f3" data-source-line="6" data-uid="ent0004" id="entity_f3"><rect fill="#F1F1F1" height="36.2969" rx="2.5" ry="2.5" style="stroke:#181818;stroke-width:0.5;" width="242.3184" x="97" y="278"/><text fill="#000000" font-family="sans-serif" font-size="14" lengthAdjust="spacing" textLength="222.3184" x="107" y="300.9951">matchInYear: Match -&gt; boolean</text></g><!--entity f4--><g class="entity" data-entity="f4" data-source-line="7" data-uid="ent0005" id="entity_f4"><rect fill="#F1F1F1" height="36.2969" rx="2.5" ry="2.5" style="stroke:#181818;stroke-width:0.5;" width="319.1475" x="58.5" y="374"/><text fill="#000000" font-family="sans-serif" font-size="14" lengthAdjust="spacing" textLength="299.1475" x="68.5" y="396.9951">isWinForTeam: Match -&gt; Optional&lt;Team&gt;</text></g><!--entity f5--><g class="entity" data-entity="f5" data-source-line="8" data-uid="ent0006" id="entity_f5"><rect fill="#F1F1F1" height="36.2969" rx="2.5" ry="2.5" style="stroke:#181818;stroke-width:0.5;" width="422.042" x="7" y="470"/><text fill="#000000" font-family="sans-serif" font-size="14" lengthAdjust="spacing" textLength="402.042" x="17" y="492.9951">aggregateWins: Stream&lt;Team&gt; -&gt; Map&lt;Team,Integer&gt;</text></g><!--entity f6--><g class="entity" data-entity="f6" data-source-line="9" data-uid="ent0007" id="entity_f6"><rect fill="#F1F1F1" height="36.2969" rx="2.5" ry="2.5" style="stroke:#181818;stroke-width:0.5;" width="286.5879" x="74.5" y="566"/><text fill="#000000" font-family="sans-serif" font-size="14" lengthAdjust="spacing" textLength="266.5879" x="84.5" y="588.9951">maxByWins: Map -&gt; Optional&lt;Entry&gt;</text></g><g class="entity" data-entity="GMN13" data-source-line="18" data-uid="ent0014" id="entity_GMN13"><path d="M399.5,6 L399.5,60 L364.67,64 L399.5,68 L399.5,121.9297 A0,0 0 0 0 399.5,121.9297 L632.4546,121.9297 A0,0 0 0 0 632.4546,121.9297 L632.4546,16 L622.4546,6 L399.5,6 A0,0 0 0 0 399.5,6" fill="#FEFFDD" style="stroke:#181818;stroke-width:0.5;"/><path d="M622.4546,6 L622.4546,16 L632.4546,16 L622.4546,6" fill="#FEFFDD" style="stroke:#181818;stroke-width:0.5;"/><text fill="#000000" font-family="sans-serif" font-size="13" lengthAdjust="spacing" textLength="210.5518" x="405.5" y="23.0669">Composi&#231;&#227;o (function chaining):</text><text fill="#000000" font-family="sans-serif" font-size="13" lengthAdjust="spacing" textLength="120.3135" x="405.5" y="38.1997">mostWinsInYear =</text><text fill="#000000" font-family="sans-serif" font-size="13" lengthAdjust="spacing" textLength="203.6899" x="413.7646" y="53.3325">maxByWins &#8728; aggregateWins &#8728;</text><text fill="#000000" font-family="sans-serif" font-size="13" lengthAdjust="spacing" textLength="163.5347" x="413.7646" y="68.4653">flatMap(isWinForTeam) &#8728;</text><text fill="#000000" font-family="sans-serif" font-size="13" lengthAdjust="spacing" textLength="135.0908" x="413.7646" y="83.5981">filter(matchInYear) &#8728;</text><text fill="#000000" font-family="sans-serif" font-size="13" lengthAdjust="spacing" textLength="127.2959" x="413.7646" y="98.731">map(parseMatch) &#8728;</text><text fill="#000000" font-family="sans-serif" font-size="13" lengthAdjust="spacing" textLength="83.9985" x="413.7646" y="113.8638">readMatches</text></g><!--link f1 to f2--><g class="link" data-entity-1="f1" data-entity-2="f2" data-source-line="11" data-uid="lnk8" id="link_f1_f2"><path d="M218,82.24 C218,107.97 218,150.13 218,175.82" fill="none" id="f1-to-f2" style="stroke:#181818;stroke-width:1;"/><polygon fill="#181818" points="218,181.82,222,172.82,218,176.82,214,172.82,218,181.82" style="stroke:#181818;stroke-width:1;"/></g><!--link f2 to f3--><g class="link" data-entity-1="f2" data-entity-2="f3" data-source-line="12" data-uid="lnk9" id="link_f2_f3"><path d="M218,218.24 C218,235.2 218,254.95 218,271.87" fill="none" id="f2-to-f3" style="stroke:#181818;stroke-width:1;"/><polygon fill="#181818" points="218,277.87,222,268.87,218,272.87,214,268.87,218,277.87" style="stroke:#181818;stroke-width:1;"/></g><!--link f3 to f4--><g class="link" data-entity-1="f3" data-entity-2="f4" data-source-line="13" data-uid="lnk10" id="link_f3_f4"><path d="M218,314.24 C218,331.2 218,350.95 218,367.87" fill="none" id="f3-to-f4" style="stroke:#181818;stroke-width:1;"/><polygon fill="#181818" points="218,373.87,222,364.87,218,368.87,214,364.87,218,373.87" style="stroke:#181818;stroke-width:1;"/></g><!--link f4 to f5--><g class="link" data-entity-1="f4" data-entity-2="f5" data-source-line="14" data-uid="lnk11" id="link_f4_f5"><path d="M218,410.24 C218,427.2 218,446.95 218,463.87" fill="none" id="f4-to-f5" style="stroke:#181818;stroke-width:1;"/><polygon fill="#181818" points="218,469.87,222,460.87,218,464.87,214,460.87,218,469.87" style="stroke:#181818;stroke-width:1;"/></g><!--link f5 to f6--><g class="link" data-entity-1="f5" data-entity-2="f6" data-source-line="15" data-uid="lnk12" id="link_f5_f6"><path d="M218,506.24 C218,523.2 218,542.95 218,559.87" fill="none" id="f5-to-f6" style="stroke:#181818;stroke-width:1;"/><polygon fill="#181818" points="218,565.87,222,556.87,218,560.87,214,556.87,218,565.87" style="stroke:#181818;stroke-width:1;"/></g><!--SRC=[LP9BJiCm48RtFiMe6rg98lfY4PKkG21rKO44g68v96F7Kc97jdcK4t04zYmuI6_2IR3pQDnLDFF_d-SLcs91C3axP-m4dYoMseAXrA4I1LcW4jxe4p82fJDY1mK6XZ3Re4jpiWdSeyjXl887vzFbqd-a4gi1e0K-YQaAZQKQIw1n1UokSb8hB9QrqdBJc2k3i5RFX2Q1sXMu5wqBGjNuPx5VsgrKjzey-dOYu50evDiwyvX38Gm9TEHnctJprEx0Rx2gWzErSYJ8j4yiZblzkDerkBSVLRrHpknQve8nFe5nfj-Lj_Xf-RIFPepF-cZE-BoF5eml-iW_exGZC5Ba3ZGF-xxMPQMjtF_kVpGC-QjAGtr8SvJARtoKC7zb5rfiDWgN3E3GDlnzVSFH7aB6EtY1payqZ7SxwZHPE3B3w4oTKdgYltgNZVuUHYg3CCC_]--></g></svg>