<svg xmlns="http://www.w3.org/2000/svg" xmlns:xlink="http://www.w3.org/1999/xlink" contentStyleType="text/css" data-diagram-type="ACTIVITY" height="568px" preserveAspectRatio="none" style="width:454px;height:568px;background:#FFFFFF;" version="1.1" viewBox="0 0 454 568" width="454px" zoomAndPan="magnify"><defs/><g><ellipse cx="227.2031" cy="20" fill="#222222" rx="10" ry="10" style="stroke:#222222;stroke-width:1;"/><rect fill="#F1F1F1" height="33.9688" rx="12.5" ry="12.5" style="stroke:#181818;stroke-width:0.5;" width="307.1387" x="73.6338" y="50"/><text fill="#000000" font-family="sans-serif" font-size="12" lengthAdjust="spacing" textLength="287.1387" x="83.6338" y="71.1387">Files.lines(data/campeonato-brasileiro-gols.csv)</text><rect fill="#F1F1F1" height="33.9688" rx="12.5" ry="12.5" style="stroke:#181818;stroke-width:0.5;" width="173.7207" x="140.3428" y="103.9688"/><text fill="#000000" font-family="sans-serif" font-size="12" lengthAdjust="spacing" textLength="153.7207" x="150.3428" y="125.1074">skip(1) // remover header</text><rect fill="#F1F1F1" height="33.9688" rx="12.5" ry="12.5" style="stroke:#181818;stroke-width:0.5;" width="271.4141" x="91.4961" y="157.9375"/><text fill="#000000" font-family="sans-serif" font-size="12" lengthAdjust="spacing" textLength="251.4141" x="101.4961" y="179.0762">map(parseGolLine) : Optional&lt;GolEvent&gt;</text><rect fill="#F1F1F1" height="33.9688" rx="12.5" ry="12.5" style="stroke:#181818;stroke-width:0.5;" width="175.4434" x="139.4814" y="211.9063"/><text fill="#000000" font-family="sans-serif" font-size="12" lengthAdjust="spacing" textLength="155.4434" x="149.4814" y="233.0449">flatMap(Optional::stream)</text><rect fill="#F1F1F1" height="33.9688" rx="12.5" ry="12.5" style="stroke:#181818;stroke-width:0.5;" width="142.5605" x="155.9229" y="265.875"/><text fill="#000000" font-family="sans-serif" font-size="12" lengthAdjust="spacing" textLength="122.5605" x="165.9229" y="287.0137">filter(validPredicate)</text><rect fill="#F1F1F1" height="33.9688" rx="12.5" ry="12.5" style="stroke:#181818;stroke-width:0.5;" width="188.041" x="133.1826" y="319.8438"/><text fill="#000000" font-family="sans-serif" font-size="12" lengthAdjust="spacing" textLength="168.041" x="143.1826" y="340.9824">map(normalizePlayerName)</text><rect fill="#F1F1F1" height="33.9688" rx="12.5" ry="12.5" style="stroke:#181818;stroke-width:0.5;" width="432.4063" x="11" y="373.8125"/><text fill="#000000" font-family="sans-serif" font-size="12" lengthAdjust="spacing" textLength="412.4063" x="21" y="394.9512">collect(groupingBy(Player, summingInt(1))) -&gt; Map&lt;Player,Integer&gt;</text><rect fill="#F1F1F1" height="33.9688" rx="12.5" ry="12.5" style="stroke:#181818;stroke-width:0.5;" width="216.0898" x="119.1582" y="427.7813"/><text fill="#000000" font-family="sans-serif" font-size="12" lengthAdjust="spacing" textLength="196.0898" x="129.1582" y="448.9199">maxByValue -&gt; TopScorerResult</text><rect fill="#F1F1F1" height="33.9688" rx="12.5" ry="12.5" style="stroke:#181818;stroke-width:0.5;" width="243.4355" x="105.4854" y="481.75"/><text fill="#000000" font-family="sans-serif" font-size="12" lengthAdjust="spacing" textLength="223.4355" x="115.4854" y="502.8887">ReportExporter -&gt; JSON/CSV/Console</text><ellipse cx="227.2031" cy="546.7188" fill="none" rx="11" ry="11" style="stroke:#222222;stroke-width:1;"/><ellipse cx="227.2031" cy="546.7188" fill="#222222" rx="6" ry="6" style="stroke:#222222;stroke-width:1;"/><line style="stroke:#181818;stroke-width:1;" x1="227.2031" x2="227.2031" y1="30" y2="50"/><polygon fill="#181818" points="223.2031,40,227.2031,50,231.2031,40,227.2031,44" style="stroke:#181818;stroke-width:1;"/><line style="stroke:#181818;stroke-width:1;" x1="227.2031" x2="227.2031" y1="83.9688" y2="103.9688"/><polygon fill="#181818" points="223.2031,93.9688,227.2031,103.9688,231.2031,93.9688,227.2031,97.9688" style="stroke:#181818;stroke-width:1;"/><line style="stroke:#181818;stroke-width:1;" x1="227.2031" x2="227.2031" y1="137.9375" y2="157.9375"/><polygon fill="#181818" points="223.2031,147.9375,227.2031,157.9375,231.2031,147.9375,227.2031,151.9375" style="stroke:#181818;stroke-width:1;"/><line style="stroke:#181818;stroke-width:1;" x1="227.2031" x2="227.2031" y1="191.9063" y2="211.9063"/><polygon fill="#181818" points="223.2031,201.9063,227.2031,211.9063,231.2031,201.9063,227.2031,205.9063" style="stroke:#181818;stroke-width:1;"/><line style="stroke:#181818;stroke-width:1;" x1="227.2031" x2="227.2031" y1="245.875" y2="265.875"/><polygon fill="#181818" points="223.2031,255.875,227.2031,265.875,231.2031,255.875,227.2031,259.875" style="stroke:#181818;stroke-width:1;"/><line style="stroke:#181818;stroke-width:1;" x1="227.2031" x2="227.2031" y1="299.8438" y2="319.8438"/><polygon fill="#181818" points="223.2031,309.8438,227.2031,319.8438,231.2031,309.8438,227.2031,313.8438" style="stroke:#181818;stroke-width:1;"/><line style="stroke:#181818;stroke-width:1;" x1="227.2031" x2="227.2031" y1="353.8125" y2="373.8125"/><polygon fill="#181818" points="223.2031,363.8125,227.2031,373.8125,231.2031,363.8125,227.2031,367.8125" style="stroke:#181818;stroke-width:1;"/><line style="stroke:#181818;stroke-width:1;" x1="227.2031" x2="227.2031" y1="407.7813" y2="427.7813"/><polygon fill="#181818" points="223.2031,417.7813,227.2031,427.7813,231.2031,417.7813,227.2031,421.7813" style="stroke:#181818;stroke-width:1;"/><line style="stroke:#181818;stroke-width:1;" x1="227.2031" x2="227.2031" y1="461.75" y2="481.75"/><polygon fill="#181818" points="223.2031,471.75,227.2031,481.75,231.2031,471.75,227.2031,475.75" style="stroke:#181818;stroke-width:1;"/><line style="stroke:#181818;stroke-width:1;" x1="227.2031" x2="227.2031" y1="515.7188" y2="535.7188"/><polygon fill="#181818" points="223.2031,525.7188,227.2031,535.7188,231.2031,525.7188,227.2031,529.7188" style="stroke:#181818;stroke-width:1;"/><!--SRC=[DO-nRi9038PtdkB6H6g8kWR40A9LgnOGLEnkOj9JVUUJpucWJrz3wUBX_pxzjhE2wAHvyeHvIZvYBZfGg5i82Jc2SlKfa0rxuQfdojCsZ-LiqkHlduh7qjMr4mmyehWlX0x5M81K992CpqnlLbgwncsJUYkakMNh4QCkJ3mHwBl9_x1fiWf2k2uuULAKOWJotKwmyoqeblVso18C_E2Eu8AoWN13BHDXgqKlF2GV- -Mb-1CUN1v2iEGbgbrTbgvQEDiylsEBiKTPtEhFoyiHQC2hyy7fqBAWx34FfCRtc5XqVRvEUzgSryDsKwyEnth5CJFXR9ALqoy0]--></g></svg>