<svg xmlns="http://www.w3.org/2000/svg" xmlns:xlink="http://www.w3.org/1999/xlink" contentStyleType="text/css" data-diagram-type="SEQUENCE" height="415px" preserveAspectRatio="none" style="width:598px;height:415px;background:#FFFFFF;" version="1.1" viewBox="0 0 598 415" width="598px" zoomAndPan="magnify"><defs/><g><g><title>CLI</title><rect fill="#000000" fill-opacity="0.00000" height="253.0625" width="8" x="14.8521" y="81.2969"/><line style="stroke:#181818;stroke-width:0.5;stroke-dasharray:5.0,5.0;" x1="18" x2="18" y1="81.2969" y2="334.3594"/></g><g><title>Orchestrator</title><rect fill="#000000" fill-opacity="0.00000" height="253.0625" width="8" x="158.772" y="81.2969"/><line style="stroke:#181818;stroke-width:0.5;stroke-dasharray:5.0,5.0;" x1="162.3281" x2="162.3281" y1="81.2969" y2="334.3594"/></g><g><title>Executor</title><rect fill="#000000" fill-opacity="0.00000" height="253.0625" width="8" x="296.5601" y="81.2969"/><line style="stroke:#181818;stroke-width:0.5;stroke-dasharray:5.0,5.0;" x1="300.4976" x2="300.4976" y1="81.2969" y2="334.3594"/></g><g><title>UseCaseA</title><rect fill="#000000" fill-opacity="0.00000" height="253.0625" width="8" x="452.3438" y="81.2969"/><line style="stroke:#181818;stroke-width:0.5;stroke-dasharray:5.0,5.0;" x1="455.3472" x2="455.3472" y1="81.2969" y2="334.3594"/></g><g><title>UseCaseB</title><rect fill="#000000" fill-opacity="0.00000" height="253.0625" width="8" x="546.3506" y="81.2969"/><line style="stroke:#181818;stroke-width:0.5;stroke-dasharray:5.0,5.0;" x1="550.3403" x2="550.3403" y1="81.2969" y2="334.3594"/></g><g class="participant participant-head" data-participant="CLI"><text fill="#000000" font-family="sans-serif" font-size="14" lengthAdjust="spacing" textLength="21.7041" x="5" y="77.9951">CLI</text><ellipse cx="18.8521" cy="13.5" fill="#E2E2F0" rx="8" ry="8" style="stroke:#181818;stroke-width:0.5;"/><path d="M18.8521,21.5 L18.8521,48.5 M5.8521,29.5 L31.8521,29.5 M18.8521,48.5 L5.8521,63.5 M18.8521,48.5 L31.8521,63.5" fill="none" style="stroke:#181818;stroke-width:0.5;"/></g><g class="participant participant-tail" data-participant="CLI"><text fill="#000000" font-family="sans-serif" font-size="14" lengthAdjust="spacing" textLength="21.7041" x="5" y="346.3545">CLI</text><ellipse cx="18.8521" cy="358.1563" fill="#E2E2F0" rx="8" ry="8" style="stroke:#181818;stroke-width:0.5;"/><path d="M18.8521,366.1563 L18.8521,393.1563 M5.8521,374.1563 L31.8521,374.1563 M18.8521,393.1563 L5.8521,408.1563 M18.8521,393.1563 L31.8521,408.1563" fill="none" style="stroke:#181818;stroke-width:0.5;"/></g><g class="participant participant-head" data-participant="Orchestrator"><rect fill="#E2E2F0" height="30.2969" rx="2.5" ry="2.5" style="stroke:#181818;stroke-width:0.5;" width="102.8877" x="111.3281" y="50"/><text fill="#000000" font-family="sans-serif" font-size="14" lengthAdjust="spacing" textLength="88.8877" x="118.3281" y="69.9951">Orchestrator</text></g><g class="participant participant-tail" data-participant="Orchestrator"><rect fill="#E2E2F0" height="30.2969" rx="2.5" ry="2.5" style="stroke:#181818;stroke-width:0.5;" width="102.8877" x="111.3281" y="333.3594"/><text fill="#000000" font-family="sans-serif" font-size="14" lengthAdjust="spacing" textLength="88.8877" x="118.3281" y="353.3545">Orchestrator</text></g><g class="participant participant-head" data-participant="Executor"><rect fill="#E2E2F0" height="30.2969" rx="2.5" ry="2.5" style="stroke:#181818;stroke-width:0.5;" width="76.125" x="262.4976" y="50"/><text fill="#000000" font-family="sans-serif" font-size="14" lengthAdjust="spacing" textLength="62.125" x="269.4976" y="69.9951">Executor</text></g><g class="participant participant-tail" data-participant="Executor"><rect fill="#E2E2F0" height="30.2969" rx="2.5" ry="2.5" style="stroke:#181818;stroke-width:0.5;" width="76.125" x="262.4976" y="333.3594"/><text fill="#000000" font-family="sans-serif" font-size="14" lengthAdjust="spacing" textLength="62.125" x="269.4976" y="353.3545">Executor</text></g><g class="participant participant-head" data-participant="UseCaseA"><rect fill="#E2E2F0" height="30.2969" rx="2.5" ry="2.5" style="stroke:#181818;stroke-width:0.5;" width="83.9932" x="414.3472" y="50"/><text fill="#000000" font-family="sans-serif" font-size="14" lengthAdjust="spacing" textLength="69.9932" x="421.3472" y="69.9951">UseCaseA</text></g><g class="participant participant-tail" data-participant="UseCaseA"><rect fill="#E2E2F0" height="30.2969" rx="2.5" ry="2.5" style="stroke:#181818;stroke-width:0.5;" width="83.9932" x="414.3472" y="333.3594"/><text fill="#000000" font-family="sans-serif" font-size="14" lengthAdjust="spacing" textLength="69.9932" x="421.3472" y="353.3545">UseCaseA</text></g><g class="participant participant-head" data-participant="UseCaseB"><rect fill="#E2E2F0" height="30.2969" rx="2.5" ry="2.5" style="stroke:#181818;stroke-width:0.5;" width="84.0205" x="508.3403" y="50"/><text fill="#000000" font-family="sans-serif" font-size="14" lengthAdjust="spacing" textLength="70.0205" x="515.3403" y="69.9951">UseCaseB</text></g><g class="participant participant-tail" data-participant="UseCaseB"><rect fill="#E2E2F0" height="30.2969" rx="2.5" ry="2.5" style="stroke:#181818;stroke-width:0.5;" width="84.0205" x="508.3403" y="333.3594"/><text fill="#000000" font-family="sans-serif" font-size="14" lengthAdjust="spacing" textLength="70.0205" x="515.3403" y="353.3545">UseCaseB</text></g><g class="message" data-participant-1="CLI" data-participant-2="Orchestrator"><polygon fill="#181818" points="150.772,108.4297,160.772,112.4297,150.772,116.4297,154.772,112.4297" style="stroke:#181818;stroke-width:1;"/><line style="stroke:#181818;stroke-width:1;" x1="18.8521" x2="156.772" y1="112.4297" y2="112.4297"/><text fill="#000000" font-family="sans-serif" font-size="13" lengthAdjust="spacing" textLength="119.9199" x="25.8521" y="107.3638">request all reports</text></g><g class="message" data-participant-1="Orchestrator" data-participant-2="Executor"><polygon fill="#181818" points="288.5601,137.5625,298.5601,141.5625,288.5601,145.5625,292.5601,141.5625" style="stroke:#181818;stroke-width:1;"/><line style="stroke:#181818;stroke-width:1;" x1="162.772" x2="294.5601" y1="141.5625" y2="141.5625"/><text fill="#000000" font-family="sans-serif" font-size="13" lengthAdjust="spacing" textLength="113.7627" x="169.772" y="136.4966">submit UseCaseA</text></g><g class="message" data-participant-1="Orchestrator" data-participant-2="Executor"><polygon fill="#181818" points="288.5601,166.6953,298.5601,170.6953,288.5601,174.6953,292.5601,170.6953" style="stroke:#181818;stroke-width:1;"/><line style="stroke:#181818;stroke-width:1;" x1="162.772" x2="294.5601" y1="170.6953" y2="170.6953"/><text fill="#000000" font-family="sans-serif" font-size="13" lengthAdjust="spacing" textLength="113.7881" x="169.772" y="165.6294">submit UseCaseB</text></g><g class="message" data-participant-1="Executor" data-participant-2="UseCaseA"><polygon fill="#181818" points="444.3438,195.8281,454.3438,199.8281,444.3438,203.8281,448.3438,199.8281" style="stroke:#181818;stroke-width:1;"/><line style="stroke:#181818;stroke-width:1;" x1="300.5601" x2="450.3438" y1="199.8281" y2="199.8281"/><text fill="#000000" font-family="sans-serif" font-size="13" lengthAdjust="spacing" textLength="131.7837" x="307.5601" y="194.7622">run (parallelStream)</text></g><g class="message" data-participant-1="Executor" data-participant-2="UseCaseB"><polygon fill="#181818" points="538.3506,224.9609,548.3506,228.9609,538.3506,232.9609,542.3506,228.9609" style="stroke:#181818;stroke-width:1;"/><line style="stroke:#181818;stroke-width:1;" x1="300.5601" x2="544.3506" y1="228.9609" y2="228.9609"/><text fill="#000000" font-family="sans-serif" font-size="13" lengthAdjust="spacing" textLength="131.7837" x="307.5601" y="223.895">run (parallelStream)</text></g><g class="message" data-participant-1="UseCaseA" data-participant-2="Orchestrator"><polygon fill="#181818" points="173.772,254.0938,163.772,258.0938,173.772,262.0938,169.772,258.0938" style="stroke:#181818;stroke-width:1;"/><line style="stroke:#181818;stroke-width:1;stroke-dasharray:2.0,2.0;" x1="167.772" x2="455.3438" y1="258.0938" y2="258.0938"/><text fill="#000000" font-family="sans-serif" font-size="13" lengthAdjust="spacing" textLength="45.957" x="179.772" y="253.0278">resultA</text></g><g class="message" data-participant-1="UseCaseB" data-participant-2="Orchestrator"><polygon fill="#181818" points="173.772,283.2266,163.772,287.2266,173.772,291.2266,169.772,287.2266" style="stroke:#181818;stroke-width:1;"/><line style="stroke:#181818;stroke-width:1;stroke-dasharray:2.0,2.0;" x1="167.772" x2="549.3506" y1="287.2266" y2="287.2266"/><text fill="#000000" font-family="sans-serif" font-size="13" lengthAdjust="spacing" textLength="45.9824" x="179.772" y="282.1606">resultB</text></g><g class="message" data-participant-1="Orchestrator" data-participant-2="CLI"><polygon fill="#181818" points="29.8521,312.3594,19.8521,316.3594,29.8521,320.3594,25.8521,316.3594" style="stroke:#181818;stroke-width:1;"/><line style="stroke:#181818;stroke-width:1;stroke-dasharray:2.0,2.0;" x1="23.8521" x2="161.772" y1="316.3594" y2="316.3594"/><text fill="#000000" font-family="sans-serif" font-size="13" lengthAdjust="spacing" textLength="107.7959" x="35.8521" y="311.2935">combinedReport</text></g><!--SRC=[ZP3F2i8m3CRlUOeSzR0Ns45OXmT141GV8Ai12zqVsnHyV3DXnOqDlBNvVldo9MIb3rYVJp1G46VTG9tW9TWdHmcauamuljccPV4UkQR8rLhH082wOt6OcMA9WLz9lqZUwtleWqIO8TeoZLCyfgPrFxF-HWraIR6fVmoGEjnfP0t0_YQ1gTsliMQBpLx5sdOnUQaWUsmoPh6ASkF1IhHzsxYE7zVlSJu0]--></g></svg>